<svg width="23" height="22" viewBox="0 0 23 22" fill="none" xmlns="http://www.w3.org/2000/svg">
<path d="M11.8867 0C5.8228 0 0.901367 4.92143 0.901367 10.9853C0.901367 17.0492 5.8228 21.9707 11.8867 21.9707C17.9506 21.9707 22.872 17.0492 22.872 10.9853C22.872 4.92143 17.9506 0 11.8867 0ZM11.8867 3.2956C13.7103 3.2956 15.1823 4.76763 15.1823 6.5912C15.1823 8.41476 13.7103 9.8868 11.8867 9.8868C10.0631 9.8868 8.5911 8.41476 8.5911 6.5912C8.5911 4.76763 10.0631 3.2956 11.8867 3.2956ZM11.8867 18.8948C9.14036 18.8948 6.71261 17.4886 5.2955 15.3575C5.32846 13.1714 9.68963 11.974 11.8867 11.974C14.0728 11.974 18.4449 13.1714 18.4779 15.3575C17.0608 17.4886 14.633 18.8948 11.8867 18.8948Z" fill="#3E1D85"/>
</svg>
